<svg id="Layer_1" data-name="Layer 1" xmlns="http://www.w3.org/2000/svg" xmlns:xlink="http://www.w3.org/1999/xlink" viewBox="0 0 1920 477"><defs><style>.cls-1,.cls-10,.cls-6,.cls-7,.cls-8,.cls-9{fill:none;}.cls-2{clip-path:url(#clip-path);}.cls-3{fill:#fff;}.cls-4,.cls-5{opacity:0.6;}.cls-4{fill:url(#linear-gradient);}.cls-5{fill:url(#linear-gradient-2);}.cls-6{stroke:#fff;}.cls-10,.cls-6,.cls-7,.cls-8,.cls-9{stroke-miterlimit:10;stroke-width:3px;}.cls-7{stroke:#4affc4;}.cls-8{stroke:#c631ff;}.cls-9{stroke:#fd74ff;}.cls-10{stroke:#0087c3;}</style><clipPath id="clip-path"><polyline class="cls-1" points="1920 628.43 1920 720 0 720 0 0 1920 0 1920 628.43"/></clipPath><linearGradient id="linear-gradient" x1="-79" y1="169.5" x2="1999" y2="169.5" gradientUnits="userSpaceOnUse"><stop offset="0" stop-color="#fd74ff"/><stop offset="0.58" stop-color="#0087c3"/><stop offset="0.68" stop-color="#36a2b1"/><stop offset="0.91" stop-color="#bce486"/><stop offset="1" stop-color="#f1ff74"/></linearGradient><linearGradient id="linear-gradient-2" x1="-30.22" y1="309.76" x2="2030.22" y2="309.76" gradientUnits="userSpaceOnUse"><stop offset="0" stop-color="#3fb0ff"/><stop offset="0.46" stop-color="#4affc4"/><stop offset="0.54" stop-color="#5ddfcd"/><stop offset="0.86" stop-color="#a863f1"/><stop offset="1" stop-color="#c631ff"/></linearGradient></defs><title>Untitled-1</title><g class="cls-2"><path class="cls-3" d="M1986-46-43-67-79,406C286.16,241.4,567.23,210.9,777.11,230c16-86.49,91.78-152,182.89-152,102.72,0,186,83.28,186,186a186,186,0,0,1-5,42.84c14,2.55,28.91,4.94,45,7.16,330.23,45.56,617.11-59.55,813-160Z"/><path class="cls-3" d="M2028.78-103-.22-82l-30,152c190.94,97.91,484.47,245.85,805,211.07-.51-5.62-.79-11.31-.79-17.07,0-102.72,83.28-186,186-186a186,186,0,0,1,170.26,111C1680-9.86,1958.32,302.11,1984.86,722.52,1978,547.56,2040.39,49.55,2028.78-103Z"/><polygon class="cls-3" points="295.37 -70.27 545.31 66.65 860 -333.82 295.37 -70.27"/><polygon class="cls-3" points="2056.38 6.97 1862.73 -202.12 1437.34 77.96 2056.38 6.97"/><path class="cls-3" d="M1118.5,166.63l31.24-223.11L1042.81,97.42A186.86,186.86,0,0,1,1118.5,166.63Z"/><polygon class="cls-3" points="1753.95 180.12 1802.93 38.08 1566.89 -89.91 1753.95 180.12"/><polygon class="cls-3" points="126 -69 325 135 743 -156 126 -69"/></g><g class="cls-2"><path class="cls-4" d="M1986-46-43-67-79,406C286.16,241.4,567.23,210.9,777.11,230c16-86.49,91.78-152,182.89-152,102.72,0,186,83.28,186,186a186,186,0,0,1-5,42.84c14,2.55,28.91,4.94,45,7.16,330.23,45.56,617.11-59.55,813-160Z"/><path class="cls-5" d="M2028.78-103-.22-82l-30,152c190.94,97.91,484.47,245.85,805,211.07-.51-5.62-.79-11.31-.79-17.07,0-102.72,83.28-186,186-186a186,186,0,0,1,170.26,111C1680-9.86,1958.32,302.11,1984.86,722.52,1978,547.56,2040.39,49.55,2028.78-103Z"/><polygon class="cls-6" points="295.37 -70.27 545.31 66.65 860 -333.82 295.37 -70.27"/><polygon class="cls-6" points="2056.38 6.97 1862.73 -202.12 1437.34 77.96 2056.38 6.97"/><path class="cls-6" d="M1118.5,166.63l31.24-223.11L1042.81,97.42A186.86,186.86,0,0,1,1118.5,166.63Z"/><polygon class="cls-6" points="1753.95 180.12 1802.93 38.08 1566.89 -89.91 1753.95 180.12"/><polygon class="cls-6" points="126 -69 325 135 743 -156 126 -69"/></g><image width="1844" height="1844" transform="translate(794 98) scale(0.18)" xlink:href="me.png"/><rect class="cls-7" x="606.5" y="376.5" width="22" height="22" transform="translate(454.87 -323.14) rotate(45)"/><rect class="cls-8" x="1183.11" y="401.83" width="18.78" height="18.78" transform="translate(1888.62 -640.72) rotate(104.47)"/><rect class="cls-9" x="1313.55" y="355.49" width="16.16" height="16.3" transform="translate(1130.67 -993.73) rotate(66.61)"/><rect class="cls-10" x="731.84" y="356.27" width="13.61" height="13.61" transform="matrix(-0.83, 0.56, -0.56, -0.83, 1553.36, 246.22)"/></svg>